<svg xmlns="http://www.w3.org/2000/svg" width="23.431" height="21.742" viewBox="0 0 23.431 21.742">
  <g id="Group_6" data-name="Group 6" transform="translate(-22.383 -30.059)">
    <path id="Path_3" data-name="Path 3" d="M42.616,30.059H25.582a3.252,3.252,0,0,0-3.2,3.3v9.558a3.252,3.252,0,0,0,3.2,3.3H35.606L43.454,51.8,41.9,46.208h1.4c1.388,0,2.516-1.478,2.516-3.3V33.354A3.252,3.252,0,0,0,42.616,30.059ZM43.3,45.272h-1.38v0l-1.249.013L41.843,49.5,35.9,45.269l-.022-.016-.374.018H25.582a2.315,2.315,0,0,1-2.262-2.359V33.354A2.315,2.315,0,0,1,25.582,31H42.616a2.315,2.315,0,0,1,2.263,2.359v9.558C44.878,44.191,44.155,45.272,43.3,45.272Z" transform="translate(0 0)" fill="#fff"/>
    <rect id="Rectangle_10" data-name="Rectangle 10" width="13.582" height="0.936" transform="translate(27.422 35.482)" fill="#fff"/>
    <rect id="Rectangle_11" data-name="Rectangle 11" width="13.582" height="0.936" transform="translate(27.487 40.227)" fill="#fff"/>
  </g>
</svg>
