<?xml version="1.0" encoding="utf-8"?>
<!-- Generator: Adobe Illustrator 16.0.0, SVG Export Plug-In . SVG Version: 6.00 Build 0)  -->
<!DOCTYPE svg PUBLIC "-//W3C//DTD SVG 1.1//EN" "http://www.w3.org/Graphics/SVG/1.1/DTD/svg11.dtd">
<svg version="1.1" id="Layer_1" xmlns="http://www.w3.org/2000/svg" xmlns:xlink="http://www.w3.org/1999/xlink" x="0px" y="0px"
	 width="100px" height="100px" viewBox="0 0 100 100" enable-background="new 0 0 100 100" xml:space="preserve">
<path fill-rule="evenodd" clip-rule="evenodd" fill="#5D5D5D" d="M48.4,54.3C40.4,62.5,32.6,70.3,25,77.9c-2-2-4-4-5.9-5.8
	c7.6-7.6,15.4-15.4,23.2-23.2C34.2,40.8,26.4,33,18.7,25.4c2.2-2.2,4.2-4.1,6.2-6c7.5,7.5,15.3,15.4,23.4,23.4
	C56.4,34.6,64.2,26.8,72,19c1.9,1.9,3.8,3.9,5.6,5.7C69.9,32.4,62,40.2,54.1,48.2c8.2,8.2,16,16,23.9,23.9c-2,2-4,3.9-6,5.9
	C64.2,70.2,56.4,62.3,48.4,54.3z"/>
</svg>
