<?xml version="1.0" encoding="utf-8"?>
<!-- Generator: Adobe Illustrator 16.0.0, SVG Export Plug-In . SVG Version: 6.00 Build 0)  -->
<!DOCTYPE svg PUBLIC "-//W3C//DTD SVG 1.1//EN" "http://www.w3.org/Graphics/SVG/1.1/DTD/svg11.dtd">
<svg version="1.1" id="Layer_1" xmlns="http://www.w3.org/2000/svg" xmlns:xlink="http://www.w3.org/1999/xlink" x="0px" y="0px"
	 width="100px" height="100px" viewBox="0 0 100 100" enable-background="new 0 0 100 100" xml:space="preserve">
<path fill-rule="evenodd" clip-rule="evenodd" d="M18.6,15.9l3.8,29.4c3,0.3,6.1,0.6,9.1,0.9c8.4,0.9,16.7,1.8,25.1,2.8
	c1.8,0.2,3.7,0.5,5.5,0.8c0,0.1,0,0.2,0,0.4c-0.6,0.2-1.2,0.4-1.8,0.5c-4.4,0.5-8.8,1-13.1,1.5c-8.2,0.9-16.3,1.8-24.5,2.6
	l-4.4,29.6c23-11.5,45.7-22.8,68.6-34.3C64,38.6,41.4,27.3,18.6,15.9z"/>
</svg>
