<?xml version="1.0" encoding="utf-8"?>
<!-- Generator: Adobe Illustrator 16.0.0, SVG Export Plug-In . SVG Version: 6.00 Build 0)  -->
<!DOCTYPE svg PUBLIC "-//W3C//DTD SVG 1.1//EN" "http://www.w3.org/Graphics/SVG/1.1/DTD/svg11.dtd">
<svg version="1.1" id="Layer_1" xmlns="http://www.w3.org/2000/svg" xmlns:xlink="http://www.w3.org/1999/xlink" x="0px" y="0px"
	 width="100px" height="100px" viewBox="0 0 100 100" enable-background="new 0 0 100 100" xml:space="preserve">
<g id="Path_4">
	<path fill="#F0F0F0" d="M46.5,73.4c0-2.8,2.3-5.2,5.2-5.2l0,0c2.8,0,5.2,2.3,5.2,5.2l0,0c0,2.8-2.3,5.2-5.2,5.2l0,0
		C48.7,78.6,46.5,76.3,46.5,73.4z M46.5,50.4c0-2.8,2.3-5.2,5.2-5.2l0,0c2.8,0,5.2,2.3,5.2,5.2l0,0c0,2.8-2.3,5.2-5.2,5.2l0,0
		C48.7,55.4,46.5,53.2,46.5,50.4z M46.5,27.4c0-2.8,2.3-5.2,5.2-5.2l0,0c2.8,0,5.2,2.3,5.2,5.2l0,0c0,2.8-2.3,5.2-5.2,5.2l0,0
		C48.7,32.4,46.5,30.1,46.5,27.4z"/>
</g>
</svg>
