<?xml version="1.0" encoding="utf-8"?>
<!-- Generator: Adobe Illustrator 16.0.0, SVG Export Plug-In . SVG Version: 6.00 Build 0)  -->
<!DOCTYPE svg PUBLIC "-//W3C//DTD SVG 1.1//EN" "http://www.w3.org/Graphics/SVG/1.1/DTD/svg11.dtd">
<svg version="1.1" id="Layer_1" xmlns="http://www.w3.org/2000/svg" xmlns:xlink="http://www.w3.org/1999/xlink" x="0px" y="0px"
	 width="100px" height="100px" viewBox="0 0 100 100" enable-background="new 0 0 100 100" xml:space="preserve">
<path fill="#F0F0F0" d="M27.8,77.3c0-0.9,0-1.4,0-1.9c0-13.7,0-27.4,0-40.9c0-4.2,1.7-5.9,5.9-5.9c12.4,0,24.8,0,37.2,0
	c3.8,0,5.6,1.8,5.6,5.6c0,9.3,0,18.6,0,27.9c0,3.6-1.9,5.5-5.6,5.5c-10.6,0-21.2,0-31.9,0c-1.1,0-1.9,0.3-2.8,1.2
	C33.7,71.4,30.9,74.2,27.8,77.3z M37.6,43c9.8,0,19.4,0,29.1,0c0-1.6,0-3.2,0-4.7c-9.7,0-19.4,0-29.1,0C37.6,39.9,37.6,41.4,37.6,43
	z M37.6,50.3c9.8,0,19.4,0,29.1,0c0-1.6,0-3.2,0-4.7c-9.7,0-19.4,0-29.1,0C37.6,47.3,37.6,48.7,37.6,50.3z M57,53
	c-6.5,0-13,0-19.3,0c0,1.6,0,3.2,0,4.7c6.5,0,12.9,0,19.3,0C57,56,57,54.6,57,53z"/>
</svg>
