<?xml version="1.0" encoding="utf-8"?>
<!-- Generator: Adobe Illustrator 16.0.0, SVG Export Plug-In . SVG Version: 6.00 Build 0)  -->
<!DOCTYPE svg PUBLIC "-//W3C//DTD SVG 1.1//EN" "http://www.w3.org/Graphics/SVG/1.1/DTD/svg11.dtd">
<svg version="1.1" id="Layer_1" xmlns="http://www.w3.org/2000/svg" xmlns:xlink="http://www.w3.org/1999/xlink" x="0px" y="0px"
	 width="100px" height="100px" viewBox="0 0 100 100" enable-background="new 0 0 100 100" xml:space="preserve">
<path fill-rule="evenodd" clip-rule="evenodd" d="M55.2,32.4c4.3,4.3,8.4,8.4,12.7,12.6c-4.6,4.6-9.2,9.2-13.9,13.9
	C46.6,66.3,39.3,73.7,31.8,81c-0.6,0.6-1.7,1.1-2.6,1.1c-3.6,0.1-7.2,0.1-11.1,0.1c0-2.4,0.2-4.7-0.1-7c-0.5-4.1,1-6.8,4-9.7
	C33.2,54.6,44.2,43.4,55.2,32.4z"/>
<path fill-rule="evenodd" clip-rule="evenodd" d="M59.3,28.3c1.9-1.9,3.9-3.9,6-5.9c1.5-1.5,3.3-1.5,4.8,0c2.7,2.6,5.3,5.2,7.9,7.9
	c1.4,1.4,1.4,3.1,0.1,4.5c-2,2.1-4.1,4.1-6.1,6.1C67.7,36.7,63.6,32.6,59.3,28.3z"/>
</svg>
