<?xml version="1.0" encoding="utf-8"?>
<!-- Generator: Adobe Illustrator 16.0.0, SVG Export Plug-In . SVG Version: 6.00 Build 0)  -->
<!DOCTYPE svg PUBLIC "-//W3C//DTD SVG 1.1//EN" "http://www.w3.org/Graphics/SVG/1.1/DTD/svg11.dtd">
<svg version="1.1" id="Layer_1" xmlns="http://www.w3.org/2000/svg" xmlns:xlink="http://www.w3.org/1999/xlink" x="0px" y="0px"
	 width="100px" height="100px" viewBox="0 0 100 100" enable-background="new 0 0 100 100" xml:space="preserve">
<path fill="#5D5D5D" d="M30.2,20.6c0,0.3,0,0.6,0,0.9c0,17.7,0,35.3,0,53c0,0.6,0.2,0.9,0.8,1.2c8.2,3.7,16.5,7.5,24.7,11.2
	c0.3,0.1,0.5,0.2,0.9,0.3c0-3.9,0-7.6,0-11.5c3.7,0,7.3,0,10.7,0c0-18.4,0-36.7,0-55.1C54.9,20.6,42.6,20.6,30.2,20.6z M64.6,72.8
	c-2.6,0-5.2,0-7.9,0c-0.1-0.4-0.1-0.7-0.1-1.1c0-12.9,0-25.8,0-38.7c0-0.8-0.2-1.2-0.9-1.5C49.8,29,44,26.4,38.1,23.9
	c-0.2-0.1-0.5-0.2-0.7-0.5c9,0,18.1,0,27.2,0C64.6,39.8,64.6,56.2,64.6,72.8z"/>
</svg>
