<svg xmlns="http://www.w3.org/2000/svg" width="30.465" height="25.701" viewBox="0 0 30.465 25.701">
  <g id="Group_5" data-name="Group 5" transform="translate(-18.908 -19.07)">
    <path id="Path_2" data-name="Path 2" d="M51.44,30.206A2.417,2.417,0,0,0,49,32.274a8.169,8.169,0,0,0,.068,1.465l-4.924,3.441-4.1-7.508c1.217-1.293,1.314-2.649.3-3.709a2.4,2.4,0,0,0-3.321-.146,2.344,2.344,0,0,0-.853,1.62,2.554,2.554,0,0,0,.988,2.225l-4.107,7.519L28.1,33.717a7.053,7.053,0,0,0,.13-1.263,2.439,2.439,0,0,0-2.419-2.247,2.478,2.478,0,0,0-2.427,2.152,2.433,2.433,0,0,0,1.985,2.677.574.574,0,0,1,.492.444c1.293,3.634,2.6,7.262,3.887,10.9a1.9,1.9,0,0,1,.084.882c-.128.864-.3,1.721-.465,2.579-.151.794.082,1.082.9,1.082q8.355,0,16.708,0c.774,0,1.009-.3.863-1.079-.17-.9-.34-1.8-.487-2.709a1.325,1.325,0,0,1,.056-.63c1.287-3.636,2.588-7.266,3.873-10.9a.749.749,0,0,1,.629-.587,2.414,2.414,0,0,0,1.913-2.6A2.483,2.483,0,0,0,51.44,30.206ZM30.794,49.537c.124-.7.246-1.375.372-2.074H46.029c.126.7.249,1.368.377,2.074ZM50.016,35.148q-1.882,5.283-3.761,10.569a.492.492,0,0,1-.551.4q-7.128-.018-14.256,0c-.245,0-.386-.048-.478-.309q-1.927-5.43-3.877-10.853a1.561,1.561,0,0,1-.04-.161l.074-.088c.14.091.283.178.419.273q2.544,1.777,5.086,3.557c.71.5.982.428,1.4-.345q2.093-3.833,4.191-7.664a2.371,2.371,0,0,1,.381-.416,2.367,2.367,0,0,1,.35.4q2.081,3.79,4.148,7.588c.492.9.721.959,1.547.381l5.013-3.508c.128-.089.26-.17.5-.329C50.093,34.891,50.061,35.021,50.016,35.148Z" transform="translate(-4.457 -6.152)" fill="#e8e8e8" fill-rule="evenodd"/>
  </g>
</svg>
