<svg xmlns="http://www.w3.org/2000/svg" width="17" height="23.098" viewBox="0 0 17 23.098">
  <g id="Group_15" data-name="Group 15" transform="translate(1094.051 -1926.757)">
    <path id="Path_10" data-name="Path 10" d="M-1008.635,1926.757a7.734,7.734,0,0,1,1.1.317,3.481,3.481,0,0,1,2.137,3.14c.025.344.011.691.012,1.037q0,3.18,0,6.36a3.521,3.521,0,0,1-1.406,2.983,3.58,3.58,0,0,1-3.751.429,3.44,3.44,0,0,1-2.13-3.1c-.016-.187-.012-.375-.012-.563q0-3.428,0-6.856a3.6,3.6,0,0,1,1.518-3.087,3.531,3.531,0,0,1,1.533-.615c.065-.01.128-.031.193-.047Z" transform="translate(-76.511 0)" fill="#ebebeb" fill-rule="evenodd"/>
    <path id="Path_11" data-name="Path 11" d="M-1086.77,2122.821v-4.005a8.742,8.742,0,0,1-6.022-3.9,7.551,7.551,0,0,1-1.259-4.229H-1092a5.982,5.982,0,0,0,2.49,4.883,6.454,6.454,0,0,0,4.272,1.282,6.432,6.432,0,0,0,4.311-1.851,5.958,5.958,0,0,0,1.817-4.317h2.059a7.827,7.827,0,0,1-2.14,5.372,8.71,8.71,0,0,1-5.143,2.753v4.013Z" transform="translate(0 -172.965)" fill="#ebebeb" fill-rule="evenodd"/>
  </g>
</svg>
