<?xml version="1.0" encoding="utf-8"?>
<!-- Generator: Adobe Illustrator 16.0.0, SVG Export Plug-In . SVG Version: 6.00 Build 0)  -->
<!DOCTYPE svg PUBLIC "-//W3C//DTD SVG 1.1//EN" "http://www.w3.org/Graphics/SVG/1.1/DTD/svg11.dtd">
<svg version="1.1" id="Layer_1" xmlns="http://www.w3.org/2000/svg" xmlns:xlink="http://www.w3.org/1999/xlink" x="0px" y="0px"
	 width="100px" height="100px" viewBox="0 0 100 100" enable-background="new 0 0 100 100" xml:space="preserve">
<g>
	<path fill-rule="evenodd" clip-rule="evenodd" d="M28.5,73.3c0-15.1,0-29.9,0-45c0.5,0,1.1,0,1.6,0c5.8,0,11.5,0,17.3,0
		c1.8,0,1.9-0.1,1.9-1.9c0-1.5,0-3,0-4.5c0-1-0.4-1.5-1.4-1.5c-8.6,0-17.2,0-25.8,0c-1.3,0-1.4,0.8-1.4,1.8c0,8,0,15.9,0,23.9
		c0,11,0,22,0,33c0,2,0.1,2.1,2.1,2.1c8.2,0,16.5,0,24.7,0c1.7,0,1.9-0.1,1.9-1.9c0-1.4-0.1-2.8,0-4.3c0.1-1.3-0.4-1.8-1.8-1.8
		c-5.8,0-11.5,0-17.3,0C29.7,73.3,29.2,73.3,28.5,73.3z"/>
	<path fill-rule="evenodd" clip-rule="evenodd" d="M64,46.4c-3.9,0-7.3,0-10.7,0c-5.8,0-11.6,0-17.4,0c-1.7,0-1.9,0.3-1.9,1.9
		c0,1.7,0,3.4,0,5.1c0,1.7,0.3,1.9,2,1.9c8.7,0,17.5,0,26.2,0c0.5,0,1,0,1.8,0c-2.3,2.3-4.3,4.3-6.4,6.4c-1.5,1.5-1.5,1.7,0,3.2
		c1.2,1.2,2.4,2.4,3.6,3.6c0.8,0.8,1.4,0.8,2.2,0c5.5-5.5,10.9-10.9,16.4-16.4c0.8-0.8,0.9-1.5,0-2.4C74.4,44.2,69,38.7,63.5,33.2
		c-0.8-0.8-1.4-0.8-2.2,0c-1.3,1.4-2.7,2.7-4.1,4.1c-0.8,0.8-0.8,1.5,0,2.3C59.4,41.7,61.6,43.9,64,46.4z"/>
</g>
</svg>
