<?xml version="1.0" encoding="utf-8"?>
<!-- Generator: Adobe Illustrator 16.0.0, SVG Export Plug-In . SVG Version: 6.00 Build 0)  -->
<!DOCTYPE svg PUBLIC "-//W3C//DTD SVG 1.1//EN" "http://www.w3.org/Graphics/SVG/1.1/DTD/svg11.dtd">
<svg version="1.1" id="Layer_1" xmlns="http://www.w3.org/2000/svg" xmlns:xlink="http://www.w3.org/1999/xlink" x="0px" y="0px"
	 width="100px" height="100px" viewBox="0 0 100 100" enable-background="new 0 0 100 100" xml:space="preserve">
<g id="Group_15" transform="translate(1094.051 -1926.757)">
	<path id="Path_10" fill="#EBEBEB" d="M-1042.2,1947.3c0.9,0.2,1.8,0.5,2.7,0.8c3.2,1.3,5.2,4.4,5.3,7.8c0.1,0.9,0,1.7,0,2.6
		c0,5.3,0,10.5,0,15.8c0.1,2.9-1.2,5.7-3.5,7.4c-2.7,2.1-6.3,2.5-9.3,1.1c-3.1-1.3-5.2-4.3-5.3-7.7c0-0.5,0-0.9,0-1.4
		c0-5.7,0-11.4,0-17c-0.1-3,1.3-5.9,3.8-7.7c1.1-0.8,2.4-1.3,3.8-1.5c0.2,0,0.3-0.1,0.5-0.1L-1042.2,1947.3z"/>
	<path id="Path_11" fill="#EBEBEB" d="M-1046.2,2004.7v-10c-6.1-0.9-11.6-4.5-15-9.7c-2.1-3.1-3.2-6.8-3.1-10.5h5.1
		c0,4.8,2.3,9.3,6.2,12.1c3,2.3,6.8,3.4,10.6,3.2c4-0.1,7.8-1.8,10.7-4.6c2.9-2.8,4.5-6.7,4.5-10.7h5.1c0,5-1.9,9.7-5.3,13.4
		c-3.3,3.7-7.9,6.1-12.8,6.8v10L-1046.2,2004.7z"/>
</g>
</svg>
